<?xml version="1.0" encoding="UTF-8"?>
<svg viewBox="-6 -6 44 44" xmlns="http://www.w3.org/2000/svg">
    <circle fill="#cc3399" cx="16" cy="16" r="22"></circle>
    <path fill="#fff" d="M39.16,23.08c0,2.24,0,4.49,0,6.74a8.91,8.91,0,0,1-5.58,8.41,10.09,10.09,0,0,1-4,.84c-4.34,0-8.69.06-13,0a9.5,9.5,0,0,1-7.89-4.13,8,8,0,0,1-1.5-4.78V16.28a8.67,8.67,0,0,1,5.1-8.12,9.81,9.81,0,0,1,4.57-1.06c4.21,0,8.43,0,12.64,0a9.7,9.7,0,0,1,8,3.91,8.06,8.06,0,0,1,1.66,5Zm-29.6,0v7.09a5.54,5.54,0,0,0,.79,2.95,7.13,7.13,0,0,0,6.31,3.55c4.33.06,8.66,0,13,0A7.05,7.05,0,0,0,32.71,36a6.45,6.45,0,0,0,4.07-6.23c0-4.58,0-9.15,0-13.73a5.81,5.81,0,0,0-1.14-3.53,7.21,7.21,0,0,0-6-3c-4.32-.05-8.64,0-13,0A7.62,7.62,0,0,0,14,10,6.6,6.6,0,0,0,9.53,16.4C9.61,18.63,9.55,20.85,9.55,23.08Z" transform="translate(-7.17 -7.08)"></path><path fill="#fff" d="M23.2,29.91a7.57,7.57,0,0,1-7.71-7.44,7.56,7.56,0,0,1,7.7-7.39,7.56,7.56,0,0,1,7.71,7.41A7.57,7.57,0,0,1,23.2,29.91Zm0-2.39a5.15,5.15,0,0,0,5.25-5,5.27,5.27,0,0,0-10.52,0A5.16,5.16,0,0,0,23.2,27.53Z" transform="translate(-7.17 -7.08)"></path><path fill="#fff" d="M31.79,12.83a1.64,1.64,0,1,1-1.61,1.66A1.64,1.64,0,0,1,31.79,12.83Z" transform="translate(-7.17 -7.08)"></path>
</svg>