<?xml version="1.0" encoding="UTF-8"?>
<svg viewBox="-6 -6 44 44" xmlns="http://www.w3.org/2000/svg">
    <circle fill="#eb722e" cx="16" cy="16" r="22"></circle>
    <path fill="#fff" d="M14.82,20.9a9.33,9.33,0,0,1-5-1.78c-.18-.14-.36-.27-.52-.43A1.49,1.49,0,0,1,11,16.27a2.91,2.91,0,0,1,.41.24,8.16,8.16,0,0,0,9,.08,2.45,2.45,0,0,1,.88-.46,1.38,1.38,0,0,1,1.58.63,1.34,1.34,0,0,1-.1,1.76,7.3,7.3,0,0,1-2.63,1.7,12.34,12.34,0,0,1-3,.67l.32.35,4.15,4.16A1.37,1.37,0,0,1,22,27a1.64,1.64,0,0,1-1.54,1,1.5,1.5,0,0,1-1-.5c-1-1-2.11-2.08-3.13-3.15-.3-.31-.44-.25-.7,0-1,1.08-2.12,2.14-3.19,3.2a1.34,1.34,0,0,1-1.61.29,1.63,1.63,0,0,1-.94-1.5,1.5,1.5,0,0,1,.51-1l4.1-4.1Z"></path><path fill="#fff" d="M16,16.15a6.07,6.07,0,1,1,6.11-6A6.08,6.08,0,0,1,16,16.15Zm3-6.08a3,3,0,1,0-3,3A3,3,0,0,0,19,10.07Z"></path>
</svg>